<svg width="113" height="229" fill="none" xmlns="http://www.w3.org/2000/svg"><path d="M.625 207.72l57.68-89.88c2.8-4.48 4.666-7.28 5.6-8.4 6.533-10.453 11.293-19.133 14.28-26.04 2.986-6.907 4.48-15.213 4.48-24.92 0-10.827-1.774-19.133-5.32-24.92-3.547-5.787-9.334-8.68-17.36-8.68-17.92 0-26.88 13.907-26.88 41.72v7.56H3.145v-7.84c0-21.28 4.386-37.613 13.16-49C25.078 5.933 39.17.24 58.585.24c17.92 0 31.453 5.133 40.6 15.4 9.146 10.08 13.72 24.453 13.72 43.12 0 9.147-1.12 17.36-3.36 24.64-2.054 7.093-4.574 13.253-7.56 18.48-2.987 5.227-7.654 12.693-14 22.4l-52.08 79.52h71.68V229H.625v-21.28z" fill="#F2F2F2"/></svg>