<svg width="80" height="80" fill="none" xmlns="http://www.w3.org/2000/svg"><path d="M65.657 34.713H14.391c-1.8 0-3.263-1.418-3.263-3.16v-9.469c0-1.742 1.463-3.16 3.263-3.16h51.265c1.8 0 3.262 1.418 3.262 3.16v9.47c0 1.741-1.462 3.159-3.261 3.159zM14.391 21.346c-.414 0-.763.338-.763.738v9.47c0 .406.342.737.763.737h51.265a.75.75 0 00.762-.738v-9.469c0-.4-.35-.738-.762-.738H14.391z" fill="#fff"/><path d="M58.507 67.15h-36.97c-3.463 0-6.281-2.73-6.281-6.087V33.502c0-.669.56-1.211 1.25-1.211s1.25.542 1.25 1.21v27.562c0 2.02 1.696 3.664 3.781 3.664h36.97c2.085 0 3.781-1.644 3.781-3.664V33.502c0-.669.56-1.211 1.25-1.211s1.25.542 1.25 1.21v27.562c0 3.356-2.817 6.086-6.28 6.086z" fill="#fff"/><path d="M40.023 67.15c-.69 0-1.25-.543-1.25-1.212V33.502c0-.669.56-1.211 1.25-1.211s1.25.542 1.25 1.21v32.436c0 .67-.56 1.212-1.25 1.212zM24.422 21.342c-3.913-2.054-5.373-6.809-3.255-10.6 2.117-3.79 7.024-5.205 10.939-3.155 5.963 3.13 9.183 11.86 9.316 12.23l-2.358.804c-.03-.082-3.038-8.221-8.148-10.903-2.703-1.416-6.09-.439-7.55 2.177-1.462 2.617-.454 5.9 2.248 7.317l-1.192 2.13z" fill="#fff"/><path d="M55.622 21.342l-1.19-2.13c1.31-.688 2.264-1.827 2.689-3.208a5.209 5.209 0 00-.442-4.109 5.494 5.494 0 00-3.308-2.604 5.692 5.692 0 00-4.24.427c-5.11 2.681-8.118 10.82-8.148 10.902l-2.359-.803c.134-.37 3.353-9.1 9.317-12.23a8.245 8.245 0 016.143-.617c2.067.595 3.768 1.935 4.794 3.772a7.548 7.548 0 01.639 5.952c-.616 2.002-1.999 3.652-3.895 4.648zm7.916 29.59H16.506c-.69 0-1.25-.543-1.25-1.211 0-.669.56-1.211 1.25-1.211h47.032c.69 0 1.25.542 1.25 1.21 0 .67-.56 1.212-1.25 1.212z" fill="#fff"/></svg>