<svg width="112" height="232" fill="none" xmlns="http://www.w3.org/2000/svg"><path d="M55.921 231.52c-18.106 0-31.92-5.04-41.44-15.12-9.333-10.267-14-24.64-14-43.12v-7.56h29.68v5.04c.374 11.573 2.334 20.44 5.88 26.6 3.734 6.16 10.36 9.24 19.88 9.24 10.08 0 16.894-3.453 20.44-10.36 3.734-7.093 5.6-17.547 5.6-31.36 0-12.693-2.333-22.587-7-29.68-4.666-7.28-12.226-11.293-22.68-12.04-.746-.187-2.146-.28-4.2-.28V92.92h3.92c10.64-.373 18.294-3.173 22.96-8.4 4.667-5.227 7-13.907 7-26.04 0-11.2-1.866-19.6-5.6-25.2-3.733-5.787-10.453-8.68-20.16-8.68-9.706 0-16.426 3.08-20.16 9.24C32.495 40 30.535 49.053 30.161 61v4.76H.481V58.2c0-18.48 4.667-32.76 14-42.84C24.001 5.28 37.908.24 56.201.24c18.294 0 32.107 5.133 41.44 15.4 9.52 10.08 14.28 24.36 14.28 42.84 0 13.253-2.893 24.08-8.68 32.48-5.786 8.4-13.72 14.093-23.8 17.08 10.267 3.173 18.2 9.613 23.8 19.32 5.787 9.707 8.68 22.213 8.68 37.52 0 21.093-4.573 37.52-13.72 49.28-8.96 11.573-23.053 17.36-42.28 17.36z" fill="#F2F2F2"/></svg>